<svg width="31" height="31" viewBox="0 0 31 31" fill="none" xmlns="http://www.w3.org/2000/svg">
<path d="M8.7899 2.66808C11.3759 2.65426 13.8343 3.78998 15.5 5.76804C17.1554 3.77646 19.6206 2.63751 22.2102 2.66808C27.0647 2.66808 31 6.6034 31 11.4579C31 19.7769 16.481 27.8997 15.8924 28.2136C15.6549 28.3723 15.3452 28.3723 15.1076 28.2136C14.519 27.8997 0 19.8946 0 11.4579C0 6.6034 3.9354 2.66808 8.7899 2.66808ZM15.5 26.644C17.776 25.3098 29.4304 18.2073 29.4304 11.4579C29.4304 7.47031 26.1978 4.23763 22.2101 4.23763C19.7682 4.20556 17.4829 5.43726 16.1671 7.49457C15.8999 7.86298 15.3846 7.94507 15.0162 7.67783C14.9458 7.62676 14.8839 7.56494 14.8329 7.49457C12.6506 4.15711 8.17596 3.22066 4.8385 5.40294C2.79539 6.7389 1.56564 9.01672 1.5697 11.4578C1.56962 18.2857 13.2241 25.349 15.5 26.644Z" fill="#887569"/>
</svg>
