<svg width="25" height="26" viewBox="0 0 25 26" fill="none" xmlns="http://www.w3.org/2000/svg">
<g clip-path="url(#clip0_1_2346)">
<path d="M24.8975 11.0523C24.7996 10.9147 24.6444 10.8335 24.4798 10.8335H0.521314C0.356714 10.8335 0.201537 10.9147 0.102562 11.0512C0.00466164 11.1888 -0.0255631 11.3665 0.0223375 11.5301L2.7015 20.8197C3.03485 21.9745 4.03798 22.7502 5.19628 22.7502H19.8047C20.963 22.7502 21.9662 21.9745 22.2985 20.8207L24.9776 11.5311C25.0256 11.3676 24.9954 11.1888 24.8975 11.0523ZM21.3016 20.5088C21.1006 21.201 20.4995 21.6669 19.8037 21.6669H5.19633C4.50048 21.6669 3.89945 21.201 3.69945 20.5088L1.22132 11.9168H23.7798L21.3016 20.5088Z" fill="#675B56"/>
<path d="M11.1962 3.32177C10.9472 3.17333 10.6285 3.2622 10.4847 3.52327L6.31805 11.1066C6.1764 11.3666 6.26283 11.697 6.51283 11.8454C6.59408 11.8942 6.68261 11.9169 6.77118 11.9169C6.95141 11.9169 7.12743 11.8194 7.22431 11.6439L11.391 4.06059C11.5327 3.80059 11.4462 3.47015 11.1962 3.32177Z" fill="#675B56"/>
<path d="M18.6827 11.1066L14.516 3.52327C14.3702 3.2622 14.0504 3.17333 13.8045 3.32177C13.5535 3.4702 13.467 3.80059 13.6098 4.06059L17.7764 11.6439C17.8733 11.8194 18.0493 11.9169 18.2296 11.9169C18.3181 11.9169 18.4067 11.8942 18.4879 11.8454C18.739 11.697 18.8254 11.3666 18.6827 11.1066Z" fill="#675B56"/>
</g>
<defs>
<clipPath id="clip0_1_2346">
<rect width="25" height="26" fill="white"/>
</clipPath>
</defs>
</svg>
