<svg width="40" height="40" viewBox="0 0 40 40" fill="none" xmlns="http://www.w3.org/2000/svg">
<circle cx="20" cy="20" r="20" fill="#F3E4DE"/>
<path d="M15.6709 11.7213C17.3393 11.7124 18.9253 12.4451 20 13.7213C21.068 12.4364 22.6584 11.7016 24.3291 11.7213C27.4611 11.7213 30 14.2603 30 17.3922C30 22.7593 20.6329 27.9998 20.2532 28.2023C20.0999 28.3047 19.9001 28.3047 19.7468 28.2023C19.3671 27.9998 10 22.8352 10 17.3922C10 14.2603 12.539 11.7213 15.6709 11.7213ZM20 27.1897C21.4684 26.3289 28.9873 21.7467 28.9873 17.3922C28.9873 14.8195 26.9018 12.7339 24.3291 12.7339C22.7537 12.7133 21.2793 13.5079 20.4304 14.8352C20.258 15.0729 19.9255 15.1258 19.6879 14.9534C19.6425 14.9205 19.6025 14.8806 19.5696 14.8352C18.1617 12.682 15.2748 12.0778 13.1216 13.4858C11.8035 14.3477 11.0101 15.8172 11.0127 17.3921C11.0127 21.7972 18.5317 26.3542 20 27.1897Z" fill="#675B56"/>
</svg>
